<svg 
 xmlns="http://www.w3.org/2000/svg"
 xmlns:xlink="http://www.w3.org/1999/xlink"
 width="27px" height="34px">
<path fill-rule="evenodd"  fill="rgb(9, 170, 87)"
 d="M13.019,0.007 C6.295,0.244 0.710,5.512 0.064,12.235 C-0.067,13.580 0.009,14.883 0.245,16.130 L0.245,16.130 C0.245,16.130 0.266,16.276 0.335,16.555 C0.543,17.489 0.855,18.395 1.244,19.245 C2.597,22.464 5.726,27.849 12.748,33.709 C13.178,34.071 13.810,34.071 14.247,33.709 C21.269,27.856 24.398,22.470 25.758,19.238 C26.153,18.388 26.459,17.489 26.667,16.548 C26.729,16.276 26.757,16.123 26.757,16.123 L26.757,16.123 C26.917,15.287 27.000,14.430 27.000,13.552 C27.000,5.902 20.693,-0.264 13.019,0.007 ZM13.498,20.297 C9.876,20.297 6.941,17.349 6.941,13.712 C6.941,10.075 9.876,7.128 13.498,7.128 C17.119,7.128 20.054,10.075 20.054,13.712 C20.054,17.349 17.119,20.297 13.498,20.297 Z"/>
</svg>