<svg 
 xmlns="http://www.w3.org/2000/svg"
 xmlns:xlink="http://www.w3.org/1999/xlink"
 width="22px" height="35px">
<path fill-rule="evenodd"  fill="rgb(205, 78, 71)"
 d="M18.700,0.000 L3.300,0.000 C1.485,0.000 0.000,1.477 0.000,3.281 L0.000,31.719 C0.000,33.523 1.485,35.000 3.300,35.000 L18.700,35.000 C20.515,35.000 22.000,33.523 22.000,31.719 L22.000,3.281 C22.000,1.477 20.515,0.000 18.700,0.000 ZM6.600,1.641 L15.400,1.641 L15.400,2.734 L6.600,2.734 L6.600,1.641 ZM11.000,32.813 C9.785,32.813 8.800,31.833 8.800,30.625 C8.800,29.417 9.785,28.438 11.000,28.438 C12.215,28.438 13.200,29.417 13.200,30.625 C13.200,31.833 12.215,32.813 11.000,32.813 ZM19.800,26.250 L2.200,26.250 L2.200,4.375 L19.800,4.375 L19.800,26.250 Z"/>
</svg>