<svg 
 xmlns="http://www.w3.org/2000/svg"
 xmlns:xlink="http://www.w3.org/1999/xlink"
 width="34px" height="26px">
<path fill-rule="evenodd"  fill="rgb(243, 106, 30)"
 d="M31.012,0.000 L2.988,0.000 C1.343,0.000 0.000,1.346 0.000,3.000 L0.000,23.000 C0.000,24.648 1.337,26.000 2.988,26.000 L31.012,26.000 C32.653,26.000 34.000,24.658 34.000,23.000 L34.000,3.000 C34.000,1.352 32.663,0.000 31.012,0.000 ZM30.599,2.000 L17.063,15.589 L3.411,2.000 L30.599,2.000 ZM1.992,22.586 L1.992,3.405 L11.587,12.954 L1.992,22.586 ZM3.401,24.000 L13.001,14.362 L16.365,17.710 C16.755,18.098 17.383,18.096 17.771,17.707 L21.051,14.414 L30.599,24.000 L3.401,24.000 ZM32.008,22.586 L22.459,13.000 L32.008,3.414 L32.008,22.586 Z"/>
</svg>